<svg width="102" height="71" viewBox="0 0 102 71" fill="none" xmlns="http://www.w3.org/2000/svg">
<rect x="27.2578" width="22.5785" height="70.076" fill="#41559A"/>
<path d="M0 0H22.5785V70.076C10.1087 70.076 0 59.9673 0 47.4975V0Z" fill="#F3F3F3"/>
<path d="M101.563 70.0717V41.0388C101.563 36.524 100.246 32.6675 97.642 29.501C94.8283 26.1775 91.2661 24.4844 86.8957 24.4844C82.5253 24.4844 78.9331 26.1775 76.1792 29.5636C73.5451 32.7303 72.2578 36.5554 72.2578 41.0388V70.0717H78.0053V41.1642C78.0053 37.6214 78.9033 34.8309 80.7591 32.8243C82.3757 31.0372 84.441 30.1279 86.8957 30.1279C89.5298 30.1279 91.6851 31.1939 93.3315 33.2947C94.9479 35.3953 95.7861 38.029 95.7861 41.1642V44.0174H80.2204V49.5681H95.7861V70.0717H101.563Z" fill="#F3F3F3"/>
<rect x="35.6797" y="24.7891" width="5.73664" height="45.2902" fill="#F3F3F3"/>
<rect x="63.4141" y="24.7891" width="5.73664" height="45.2902" fill="#F3F3F3"/>
<rect x="61.0859" y="44.0078" width="5.57418" height="17.3493" transform="rotate(90 61.0859 44.0078)" fill="#F3F3F3"/>
</svg>
