<svg width="32" height="23" viewBox="0 0 32 23" fill="none" xmlns="http://www.w3.org/2000/svg">
<rect x="8.58594" width="7.11365" height="22.0779" fill="#BFE74B"/>
<path d="M0 0H7.11365V22.0779V22.0779C3.18489 22.0779 0 18.893 0 14.9642V0Z" fill="#0B0B0B"/>
<path d="M31.9988 22.0774V12.9304C31.9988 11.508 31.5838 10.293 30.7633 9.29535C29.8767 8.24827 28.7544 7.71484 27.3775 7.71484C26.0005 7.71484 24.8688 8.24827 24.0011 9.31507C23.1712 10.3128 22.7656 11.5179 22.7656 12.9304V22.0774H24.5764V12.9699C24.5764 11.8537 24.8594 10.9746 25.4441 10.3424C25.9534 9.77935 26.6041 9.49288 27.3775 9.49288C28.2074 9.49288 28.8865 9.82873 29.4052 10.4906C29.9144 11.1524 30.1785 11.9822 30.1785 12.9699V13.8689H25.2743V15.6176H30.1785V22.0774H31.9988Z" fill="#0B0B0B"/>
<rect x="11.2422" y="7.81055" width="1.80741" height="14.269" fill="#0B0B0B"/>
<rect x="19.9805" y="7.81055" width="1.80741" height="14.269" fill="#0B0B0B"/>
<rect x="19.2461" y="13.8652" width="1.75618" height="5.46612" transform="rotate(90 19.2461 13.8652)" fill="#0B0B0B"/>
</svg>
