<svg width="2537" height="1751" viewBox="0 0 2537 1751" fill="none" xmlns="http://www.w3.org/2000/svg">
<rect x="680.805" width="563.953" height="1750.28" fill="#BFE74B"/>
<path d="M0 0H563.953V1750.28C252.49 1750.28 0 1497.79 0 1186.33V0Z" fill="#0B0B0B"/>
<path d="M2536.87 1750.21V1025.06C2536.87 912.291 2503.97 815.968 2438.93 736.877C2368.64 653.867 2279.67 611.578 2170.51 611.578C2061.35 611.578 1971.62 653.867 1902.84 738.441C1837.05 817.536 1804.89 913.075 1804.89 1025.06V1750.21H1948.45V1028.19C1948.45 939.7 1970.88 870.002 2017.23 819.883C2057.61 775.247 2109.2 752.537 2170.51 752.537C2236.3 752.537 2290.14 779.162 2331.26 831.632C2371.63 884.098 2392.57 949.881 2392.57 1028.19V1099.45H2003.78V1238.09H2392.57V1750.21H2536.87Z" fill="#0B0B0B"/>
<rect x="891.223" y="619.125" width="143.287" height="1131.21" fill="#0B0B0B"/>
<rect x="1583.87" y="619.125" width="143.287" height="1131.21" fill="#0B0B0B"/>
<rect x="1525.86" y="1099.16" width="139.226" height="433.341" transform="rotate(90 1525.86 1099.16)" fill="#0B0B0B"/>
</svg>
